<mxfile host="app.diagrams.net" agent="Mozilla/5.0 (Windows NT 10.0; Win64; x64) AppleWebKit/537.36 (KHTML, like Gecko) Chrome/131.0.0.0 Safari/537.36" version="25.0.3">
  <diagram name="Page-1" id="6cSFzkjK8kXYF5W2tkh7">
    <mxGraphModel dx="969" dy="446" grid="1" gridSize="10" guides="1" tooltips="1" connect="1" arrows="1" fold="1" page="1" pageScale="1" pageWidth="827" pageHeight="1169" math="0" shadow="0">
      <root>
        <mxCell id="0" />
        <mxCell id="1" parent="0" />
        <mxCell id="W0Zm7J069spBB3lb5HSG-1" value="" style="ellipse;html=1;shape=startState;fillColor=#000000;strokeColor=#ff0000;fontSize=15;movable=1;resizable=1;rotatable=1;deletable=1;editable=1;locked=0;connectable=1;" parent="1" vertex="1">
          <mxGeometry x="389" y="354" width="50" height="50" as="geometry" />
        </mxCell>
        <mxCell id="W0Zm7J069spBB3lb5HSG-2" value="" style="endArrow=classic;html=1;rounded=0;exitX=0.5;exitY=1;exitDx=0;exitDy=0;entryX=0.5;entryY=0.5;entryDx=0;entryDy=-15;entryPerimeter=0;movable=1;resizable=1;rotatable=1;deletable=1;editable=1;locked=0;connectable=1;" parent="1" source="W0Zm7J069spBB3lb5HSG-1" target="W0Zm7J069spBB3lb5HSG-3" edge="1">
          <mxGeometry width="50" height="50" relative="1" as="geometry">
            <mxPoint x="370" y="564" as="sourcePoint" />
            <mxPoint x="414" y="434" as="targetPoint" />
          </mxGeometry>
        </mxCell>
        <mxCell id="W0Zm7J069spBB3lb5HSG-3" value="Login" style="html=1;dashed=0;whiteSpace=wrap;shape=mxgraph.dfd.start;movable=1;resizable=1;rotatable=1;deletable=1;editable=1;locked=0;connectable=1;" parent="1" vertex="1">
          <mxGeometry x="337" y="434" width="154" height="30" as="geometry" />
        </mxCell>
        <mxCell id="W0Zm7J069spBB3lb5HSG-4" value="" style="rhombus;whiteSpace=wrap;html=1;movable=1;resizable=1;rotatable=1;deletable=1;editable=1;locked=0;connectable=1;" parent="1" vertex="1">
          <mxGeometry x="374" y="504" width="80" height="50" as="geometry" />
        </mxCell>
        <mxCell id="W0Zm7J069spBB3lb5HSG-5" value="" style="endArrow=classic;html=1;rounded=0;exitX=0.5;exitY=0.5;exitDx=0;exitDy=15;exitPerimeter=0;entryX=0.5;entryY=0;entryDx=0;entryDy=0;movable=1;resizable=1;rotatable=1;deletable=1;editable=1;locked=0;connectable=1;" parent="1" source="W0Zm7J069spBB3lb5HSG-3" target="W0Zm7J069spBB3lb5HSG-4" edge="1">
          <mxGeometry width="50" height="50" relative="1" as="geometry">
            <mxPoint x="420" y="514" as="sourcePoint" />
            <mxPoint x="414" y="504" as="targetPoint" />
          </mxGeometry>
        </mxCell>
        <mxCell id="W0Zm7J069spBB3lb5HSG-6" value="[Invalid user]" style="strokeWidth=1;shadow=0;dashed=0;align=center;html=1;shape=mxgraph.mockup.text.textBox;fontColor=#666666;align=left;fontSize=17;spacingLeft=4;spacingTop=-3;whiteSpace=wrap;strokeColor=none;mainText=;fillColor=none;movable=1;resizable=1;rotatable=1;deletable=1;editable=1;locked=0;connectable=1;" parent="1" vertex="1">
          <mxGeometry x="470" y="494" width="116" height="40" as="geometry" />
        </mxCell>
        <mxCell id="W0Zm7J069spBB3lb5HSG-7" value="Login" style="html=1;dashed=0;whiteSpace=wrap;shape=mxgraph.dfd.start;movable=1;resizable=1;rotatable=1;deletable=1;editable=1;locked=0;connectable=1;" parent="1" vertex="1">
          <mxGeometry x="337" y="434" width="154" height="30" as="geometry" />
        </mxCell>
        <mxCell id="W0Zm7J069spBB3lb5HSG-8" value="Alert &quot;Invalid user id or password&quot;" style="html=1;dashed=0;whiteSpace=wrap;shape=mxgraph.dfd.start;movable=1;resizable=1;rotatable=1;deletable=1;editable=1;locked=0;connectable=1;" parent="1" vertex="1">
          <mxGeometry x="580" y="514" width="154" height="30" as="geometry" />
        </mxCell>
        <mxCell id="W0Zm7J069spBB3lb5HSG-9" value="" style="endArrow=classic;html=1;rounded=0;exitX=1;exitY=0.5;exitDx=0;exitDy=0;entryX=0;entryY=0.5;entryDx=0;entryDy=0;entryPerimeter=0;movable=1;resizable=1;rotatable=1;deletable=1;editable=1;locked=0;connectable=1;" parent="1" source="W0Zm7J069spBB3lb5HSG-4" target="W0Zm7J069spBB3lb5HSG-8" edge="1">
          <mxGeometry width="50" height="50" relative="1" as="geometry">
            <mxPoint x="480" y="524" as="sourcePoint" />
            <mxPoint x="480" y="564" as="targetPoint" />
          </mxGeometry>
        </mxCell>
        <mxCell id="W0Zm7J069spBB3lb5HSG-10" value="" style="endArrow=classic;html=1;rounded=0;exitX=0.5;exitY=0.5;exitDx=0;exitDy=-15;exitPerimeter=0;entryX=1;entryY=0.5;entryDx=0;entryDy=0;entryPerimeter=0;movable=1;resizable=1;rotatable=1;deletable=1;editable=1;locked=0;connectable=1;" parent="1" source="W0Zm7J069spBB3lb5HSG-8" target="W0Zm7J069spBB3lb5HSG-7" edge="1">
          <mxGeometry width="50" height="50" relative="1" as="geometry">
            <mxPoint x="594" y="463.2" as="sourcePoint" />
            <mxPoint x="657" y="414" as="targetPoint" />
            <Array as="points">
              <mxPoint x="657" y="449" />
            </Array>
          </mxGeometry>
        </mxCell>
        <mxCell id="W0Zm7J069spBB3lb5HSG-11" value="" style="endArrow=classic;html=1;rounded=0;exitX=0.5;exitY=1;exitDx=0;exitDy=0;entryX=0.5;entryY=0.5;entryDx=0;entryDy=-15;entryPerimeter=0;movable=1;resizable=1;rotatable=1;deletable=1;editable=1;locked=0;connectable=1;" parent="1" source="W0Zm7J069spBB3lb5HSG-4" target="W0Zm7J069spBB3lb5HSG-12" edge="1">
          <mxGeometry width="50" height="50" relative="1" as="geometry">
            <mxPoint x="414" y="584" as="sourcePoint" />
            <mxPoint x="414" y="584" as="targetPoint" />
          </mxGeometry>
        </mxCell>
        <mxCell id="W0Zm7J069spBB3lb5HSG-12" value="View Request" style="html=1;dashed=0;whiteSpace=wrap;shape=mxgraph.dfd.start;movable=1;resizable=1;rotatable=1;deletable=1;editable=1;locked=0;connectable=1;" parent="1" vertex="1">
          <mxGeometry x="337" y="584" width="154" height="30" as="geometry" />
        </mxCell>
        <mxCell id="W0Zm7J069spBB3lb5HSG-13" value="[Valid user]" style="strokeWidth=1;shadow=0;dashed=0;align=center;html=1;shape=mxgraph.mockup.text.textBox;fontColor=#666666;align=left;fontSize=17;spacingLeft=4;spacingTop=-3;whiteSpace=wrap;strokeColor=none;mainText=;fillColor=none;movable=1;resizable=1;rotatable=1;deletable=1;editable=1;locked=0;connectable=1;" parent="1" vertex="1">
          <mxGeometry x="314" y="544" width="116" height="40" as="geometry" />
        </mxCell>
        <mxCell id="W0Zm7J069spBB3lb5HSG-14" value="Alert &quot;No Request available&quot;" style="html=1;dashed=0;whiteSpace=wrap;shape=mxgraph.dfd.start;movable=1;resizable=1;rotatable=1;deletable=1;editable=1;locked=0;connectable=1;" parent="1" vertex="1">
          <mxGeometry x="580" y="665" width="154" height="30" as="geometry" />
        </mxCell>
        <mxCell id="W0Zm7J069spBB3lb5HSG-15" value="" style="endArrow=classic;html=1;rounded=0;exitX=1;exitY=0.5;exitDx=0;exitDy=0;entryX=0;entryY=0.5;entryDx=0;entryDy=0;entryPerimeter=0;movable=1;resizable=1;rotatable=1;deletable=1;editable=1;locked=0;connectable=1;" parent="1" source="YyZqvfSjCT9Lh4GPPzRW-4" target="W0Zm7J069spBB3lb5HSG-14" edge="1">
          <mxGeometry width="50" height="50" relative="1" as="geometry">
            <mxPoint x="491" y="680" as="sourcePoint" />
            <mxPoint x="606" y="644.6" as="targetPoint" />
          </mxGeometry>
        </mxCell>
        <mxCell id="W0Zm7J069spBB3lb5HSG-16" value="[No request available]" style="strokeWidth=1;shadow=0;dashed=0;align=center;html=1;shape=mxgraph.mockup.text.textBox;fontColor=#666666;align=left;fontSize=17;spacingLeft=4;spacingTop=-3;whiteSpace=wrap;strokeColor=none;mainText=;fillColor=none;movable=1;resizable=1;rotatable=1;deletable=1;editable=1;locked=0;connectable=1;" parent="1" vertex="1">
          <mxGeometry x="439" y="630" width="180" height="40" as="geometry" />
        </mxCell>
        <mxCell id="W0Zm7J069spBB3lb5HSG-17" value="" style="endArrow=classic;html=1;rounded=0;exitX=0.5;exitY=0.5;exitDx=0;exitDy=15;exitPerimeter=0;entryX=0.5;entryY=0;entryDx=0;entryDy=0;movable=1;resizable=1;rotatable=1;deletable=1;editable=1;locked=0;connectable=1;" parent="1" source="W0Zm7J069spBB3lb5HSG-14" target="W0Zm7J069spBB3lb5HSG-18" edge="1">
          <mxGeometry width="50" height="50" relative="1" as="geometry">
            <mxPoint x="520" y="795" as="sourcePoint" />
            <mxPoint x="657" y="745" as="targetPoint" />
          </mxGeometry>
        </mxCell>
        <mxCell id="W0Zm7J069spBB3lb5HSG-18" value="" style="ellipse;html=1;shape=endState;fillColor=#000000;strokeColor=#ff0000;movable=1;resizable=1;rotatable=1;deletable=1;editable=1;locked=0;connectable=1;" parent="1" vertex="1">
          <mxGeometry x="632" y="725" width="50" height="50" as="geometry" />
        </mxCell>
        <mxCell id="W0Zm7J069spBB3lb5HSG-19" value="" style="endArrow=classic;html=1;rounded=0;exitX=0.5;exitY=0.5;exitDx=0;exitDy=15;exitPerimeter=0;movable=1;resizable=1;rotatable=1;deletable=1;editable=1;locked=0;connectable=1;entryX=0.5;entryY=0;entryDx=0;entryDy=0;" parent="1" source="W0Zm7J069spBB3lb5HSG-12" target="YyZqvfSjCT9Lh4GPPzRW-4" edge="1">
          <mxGeometry width="50" height="50" relative="1" as="geometry">
            <mxPoint x="402" y="664" as="sourcePoint" />
            <mxPoint x="414" y="660" as="targetPoint" />
          </mxGeometry>
        </mxCell>
        <mxCell id="W0Zm7J069spBB3lb5HSG-20" value="Check appointment" style="html=1;dashed=0;whiteSpace=wrap;shape=mxgraph.dfd.start;movable=1;resizable=1;rotatable=1;deletable=1;editable=1;locked=0;connectable=1;" parent="1" vertex="1">
          <mxGeometry x="337" y="741" width="154" height="30" as="geometry" />
        </mxCell>
        <mxCell id="W0Zm7J069spBB3lb5HSG-21" value="[Request available]" style="strokeWidth=1;shadow=0;dashed=0;align=center;html=1;shape=mxgraph.mockup.text.textBox;fontColor=#666666;align=left;fontSize=17;spacingLeft=4;spacingTop=-3;whiteSpace=wrap;strokeColor=none;mainText=;fillColor=none;movable=1;resizable=1;rotatable=1;deletable=1;editable=1;locked=0;connectable=1;" parent="1" vertex="1">
          <mxGeometry x="240" y="695" width="154" height="40" as="geometry" />
        </mxCell>
        <mxCell id="W0Zm7J069spBB3lb5HSG-22" value="" style="endArrow=classic;html=1;rounded=0;exitX=0.5;exitY=0.5;exitDx=0;exitDy=15;exitPerimeter=0;entryX=0.5;entryY=0;entryDx=0;entryDy=0;movable=1;resizable=1;rotatable=1;deletable=1;editable=1;locked=0;connectable=1;" parent="1" source="W0Zm7J069spBB3lb5HSG-20" target="W0Zm7J069spBB3lb5HSG-42" edge="1">
          <mxGeometry width="50" height="50" relative="1" as="geometry">
            <mxPoint x="413" y="781" as="sourcePoint" />
            <mxPoint x="414" y="811" as="targetPoint" />
          </mxGeometry>
        </mxCell>
        <mxCell id="W0Zm7J069spBB3lb5HSG-42" value="" style="ellipse;html=1;shape=endState;fillColor=#000000;strokeColor=#ff0000;movable=1;resizable=1;rotatable=1;deletable=1;editable=1;locked=0;connectable=1;" parent="1" vertex="1">
          <mxGeometry x="389" y="821" width="50" height="50" as="geometry" />
        </mxCell>
        <mxCell id="YyZqvfSjCT9Lh4GPPzRW-4" value="" style="rhombus;whiteSpace=wrap;html=1;movable=0;resizable=0;rotatable=0;deletable=0;editable=0;locked=1;connectable=0;" vertex="1" parent="1">
          <mxGeometry x="374" y="654" width="80" height="50" as="geometry" />
        </mxCell>
        <mxCell id="YyZqvfSjCT9Lh4GPPzRW-5" value="" style="endArrow=classic;html=1;rounded=0;exitX=0.5;exitY=1;exitDx=0;exitDy=0;movable=1;resizable=1;rotatable=1;deletable=1;editable=1;locked=0;connectable=1;entryX=0.5;entryY=0.5;entryDx=0;entryDy=-15;entryPerimeter=0;" edge="1" parent="1" source="YyZqvfSjCT9Lh4GPPzRW-4" target="W0Zm7J069spBB3lb5HSG-20">
          <mxGeometry width="50" height="50" relative="1" as="geometry">
            <mxPoint x="413" y="704" as="sourcePoint" />
            <mxPoint x="413" y="744" as="targetPoint" />
          </mxGeometry>
        </mxCell>
      </root>
    </mxGraphModel>
  </diagram>
</mxfile>
